<svg width="35" height="35" viewBox="0 0 35 35" fill="none" xmlns="http://www.w3.org/2000/svg">
  <g clip-path="url(#a)">
    <path d="M18.958 11.667a5.83 5.83 0 0 0-5.833-5.834 5.83 5.83 0 0 0-5.833 5.834 5.83 5.83 0 0 0 5.833 5.833 5.83 5.83 0 0 0 5.833-5.833m-2.916 0a2.925 2.925 0 0 1-2.917 2.916 2.925 2.925 0 0 1-2.917-2.916 2.925 2.925 0 0 1 2.917-2.917 2.925 2.925 0 0 1 2.917 2.917M1.458 26.25v2.917h23.334V26.25c0-3.88-7.773-5.833-11.667-5.833S1.458 22.37 1.458 26.25m2.917 0c.292-1.035 4.812-2.917 8.75-2.917 3.923 0 8.43 1.867 8.75 2.917zm24.792-4.375V17.5h4.375v-2.917h-4.375v-4.375H26.25v4.375h-4.375V17.5h4.375v4.375z" fill="#009c31"/>
  </g>
  <defs>
    <clipPath id="a">
      <path fill="#fff" d="M0 0h35v35H0z"/>
    </clipPath>
  </defs>
</svg>
