<svg width="35" height="35" viewBox="0 0 35 35" fill="none" xmlns="http://www.w3.org/2000/svg"><g clip-path="url(#a)" fill="#ec6c30"><path d="M26.25 16.042v2.916h5.833v-2.916zm-2.917 9.639c1.4 1.036 3.223 2.406 4.667 3.486.583-.773 1.167-1.56 1.75-2.334-1.444-1.079-3.267-2.45-4.667-3.5-.583.788-1.166 1.575-1.75 2.348M29.75 8.167c-.583-.773-1.167-1.56-1.75-2.334-1.444 1.08-3.267 2.45-4.667 3.5.584.773 1.167 1.56 1.75 2.334 1.4-1.05 3.223-2.407 4.667-3.5M5.833 13.125a2.925 2.925 0 0 0-2.916 2.917v2.916a2.925 2.925 0 0 0 2.916 2.917h1.459v5.833h2.916v-5.833h1.459l7.291 4.375V8.75l-7.291 4.375zm7.336 2.494 2.873-1.721v7.204l-2.873-1.72-.7-.424H5.833v-2.916h6.636zm9.435 1.881c0-1.94-.846-3.69-2.187-4.885v9.756a6.48 6.48 0 0 0 2.187-4.871"/></g><defs><clipPath id="a"><path fill="#fff" d="M0 0h35v35H0z"/></clipPath></defs></svg>